<svg width="20" height="21" viewBox="0 0 20 21" fill="none" xmlns="http://www.w3.org/2000/svg">
<path fill-rule="evenodd" clip-rule="evenodd" d="M0 10.5C0 4.97715 4.47715 0.5 10 0.5C12.6522 0.5 15.1957 1.55357 17.0711 3.42893C18.9464 5.3043 20 7.84784 20 10.5C20 16.0228 15.5228 20.5 10 20.5C4.47715 20.5 0 16.0228 0 10.5ZM8.73 13.85L14.35 8.23C14.5341 8.03685 14.5341 7.73315 14.35 7.54L13.82 7.01C13.6256 6.81943 13.3144 6.81943 13.12 7.01L8.38 11.75L6.88 10.26C6.78927 10.1633 6.66259 10.1085 6.53 10.1085C6.39741 10.1085 6.27073 10.1633 6.18 10.26L5.65 10.79C5.55534 10.8839 5.5021 11.0117 5.5021 11.145C5.5021 11.2783 5.55534 11.4061 5.65 11.5L8.03 13.85C8.12073 13.9467 8.24741 14.0015 8.38 14.0015C8.51259 14.0015 8.63927 13.9467 8.73 13.85Z" fill="#00B562"/>
</svg>
