<svg xmlns="http://www.w3.org/2000/svg" width="20" height="20" fill="none" viewBox="0 0 16 20"><path fill="#171C1A" fill-rule="evenodd" d="M16 8A8 8 0 1 0 0 8c0 3.745 1.83 5.217 3.53 6.583 1.123.903 2.188 1.76 2.63 3.197l.51 1.54a1 1 0 0 0 1 .68h.56a1 1 0 0 0 1-.68l.51-1.54c.478-1.426 1.554-2.28 2.683-3.176C14.15 13.232 16 11.764 16 8M8 2a6 6 0 0 0-6 6c0 2.8 1.18 3.74 2.82 5A9.17 9.17 0 0 1 8 16.73 9.25 9.25 0 0 1 11.18 13C12.82 11.74 14 10.8 14 8a6 6 0 0 0-6-6m2 6a2 2 0 1 1-4 0 2 2 0 0 1 4 0" clip-rule="evenodd"/></svg>