<svg width="2rem" height="2rem" viewBox="0 0 20 20" fill="none" xmlns="http://www.w3.org/2000/svg"><path opacity="0.2" d="M11.875 4.375C11.875 4.74584 11.765 5.10835 11.559 5.41669C11.353 5.72504 11.0601 5.96536 10.7175 6.10727C10.3749 6.24919 9.99792 6.28632 9.63421 6.21397C9.27049 6.14163 8.9364 5.96305 8.67418 5.70083C8.41195 5.4386 8.23338 5.10451 8.16103 4.74079C8.08868 4.37708 8.12581 4.00008 8.26773 3.65747C8.40964 3.31486 8.64996 3.02202 8.95831 2.81599C9.26665 2.60997 9.62916 2.5 10 2.5C10.4973 2.5 10.9742 2.69754 11.3258 3.04917C11.6775 3.40081 11.875 3.87772 11.875 4.375Z" fill="#3B4540"/><path d="M10.0005 6.875C10.495 6.875 10.9783 6.72838 11.3895 6.45368C11.8006 6.17897 12.121 5.78853 12.3102 5.33171C12.4994 4.8749 12.549 4.37223 12.4525 3.88728C12.356 3.40232 12.1179 2.95687 11.7683 2.60723C11.4187 2.2576 10.9732 2.0195 10.4883 1.92304C10.0033 1.82657 9.50064 1.87608 9.04382 2.0653C8.58701 2.25452 8.19656 2.57495 7.92186 2.98608C7.64715 3.3972 7.50053 3.88055 7.50053 4.375C7.50053 5.03804 7.76392 5.67393 8.23276 6.14277C8.7016 6.61161 9.33749 6.875 10.0005 6.875ZM10.0005 3.125C10.2478 3.125 10.4894 3.19831 10.695 3.33566C10.9006 3.47302 11.0608 3.66824 11.1554 3.89665C11.25 4.12505 11.2747 4.37639 11.2265 4.61886C11.1783 4.86134 11.0592 5.08407 10.8844 5.25888C10.7096 5.4337 10.4869 5.55275 10.2444 5.60098C10.0019 5.64921 9.75058 5.62446 9.52218 5.52985C9.29377 5.43524 9.09854 5.27503 8.96119 5.06946C8.82384 4.8639 8.75053 4.62223 8.75053 4.375C8.75053 4.04348 8.88223 3.72554 9.11665 3.49112C9.35107 3.2567 9.66901 3.125 10.0005 3.125ZM3.75053 7.5C3.75053 7.25278 3.82384 7.0111 3.96119 6.80554C4.09854 6.59998 4.29377 6.43976 4.52218 6.34515C4.75058 6.25054 5.00192 6.22579 5.24439 6.27402C5.48687 6.32225 5.7096 6.4413 5.88441 6.61612C6.05923 6.79093 6.17828 7.01366 6.22651 7.25614C6.27474 7.49862 6.24999 7.74995 6.15538 7.97836C6.06077 8.20676 5.90055 8.40199 5.69499 8.53934C5.48943 8.67669 5.24776 8.75 5.00053 8.75C4.66901 8.75 4.35107 8.61831 4.11665 8.38388C3.88223 8.14946 3.75053 7.83152 3.75053 7.5ZM17.363 8.64141C17.2596 8.77087 17.109 8.85396 16.9443 8.87242C16.7797 8.89088 16.6144 8.84319 16.4849 8.73985C16.3951 8.67031 14.6326 7.35703 11.8505 8.7875C11.8286 9.58242 11.7503 10.3748 11.6162 11.1586L14.1497 13.268C14.2464 13.3485 14.3166 13.4562 14.351 13.5772C14.3854 13.6982 14.3825 13.8268 14.3427 13.9461L13.0927 17.6961C13.0403 17.8534 12.9275 17.9834 12.7793 18.0575C12.631 18.1316 12.4594 18.1438 12.3021 18.0914C12.1448 18.039 12.0148 17.9262 11.9407 17.778C11.8666 17.6297 11.8544 17.458 11.9068 17.3008L13.0216 13.9555L11.2966 12.518C11.1839 12.898 11.0509 13.2717 10.8982 13.6375C9.82397 16.1953 7.89975 17.9055 5.17944 18.7219C5.02204 18.7652 4.85394 18.7452 4.71109 18.6662C4.56824 18.5871 4.46198 18.4554 4.41503 18.299C4.36808 18.1427 4.38417 17.9741 4.45986 17.8295C4.53556 17.6848 4.66484 17.5756 4.82006 17.525C9.56069 16.1023 10.3779 11.8828 10.556 9.5836C8.43803 10.9281 6.76381 11.25 5.65365 11.25C5.1307 11.2518 4.61119 11.1654 4.11694 10.9945C3.98473 10.9368 3.87658 10.835 3.81084 10.7066C3.7451 10.5782 3.72582 10.4309 3.75627 10.2899C3.78672 10.1489 3.86502 10.0227 3.9779 9.93287C4.09077 9.843 4.23126 9.79495 4.37553 9.79688C4.46486 9.79675 4.55313 9.81622 4.63412 9.85391C4.63412 9.85391 6.72475 10.6883 10.274 8.27578C14.3591 5.49922 17.149 7.66875 17.2669 7.7625C17.331 7.81389 17.3843 7.87739 17.4238 7.94937C17.4632 8.02136 17.4882 8.10042 17.4971 8.18205C17.506 8.26367 17.4988 8.34624 17.4758 8.42506C17.4528 8.50388 17.4145 8.5774 17.363 8.64141Z" fill="#3B4540"/></svg>